<svg width="300" height="496" viewBox="0 0 300 496" fill="none" xmlns="http://www.w3.org/2000/svg">
    <g filter="url(#filter0_d_2802_567)">
        <rect x="50" y="50" width="200" height="386" fill="#2971FF" />
    </g>
    <path
        d="M249.5 49C249.5 49.794 248.962 50.675 247.673 51.6198C246.398 52.5545 244.485 53.477 241.974 54.3674C236.959 56.1462 229.673 57.7567 220.637 59.1121C202.571 61.8219 177.597 63.5 150 63.5C122.403 63.5 97.4286 61.8219 79.3635 59.1121C70.3271 57.7567 63.0414 56.1462 58.0256 54.3674C55.5147 53.477 53.6023 52.5545 52.3272 51.6198C51.0384 50.675 50.5 49.794 50.5 49C50.5 48.206 51.0384 47.325 52.3272 46.3802C53.6023 45.4455 55.5147 44.523 58.0256 43.6326C63.0414 41.8538 70.3271 40.2433 79.3635 38.8879C97.4286 36.1781 122.403 34.5 150 34.5C177.597 34.5 202.571 36.1781 220.637 38.8879C229.673 40.2433 236.959 41.8538 241.974 43.6326C244.485 44.523 246.398 45.4455 247.673 46.3802C248.962 47.325 249.5 48.206 249.5 49Z"
        fill="url(#paint0_linear_2802_567)" stroke="url(#paint1_linear_2802_567)" />
    <g filter="url(#filter1_d_2802_567)">
        <ellipse cx="150" cy="436" rx="100" ry="15" fill="#0055FF" />
    </g>
    <defs>
        <filter id="filter0_d_2802_567" x="0" y="0" width="300" height="486" filterUnits="userSpaceOnUse"
            color-interpolation-filters="sRGB">
            <feFlood flood-opacity="0" result="BackgroundImageFix" />
            <feColorMatrix in="SourceAlpha" type="matrix" values="0 0 0 0 0 0 0 0 0 0 0 0 0 0 0 0 0 0 127 0"
                result="hardAlpha" />
            <feOffset />
            <feGaussianBlur stdDeviation="25" />
            <feComposite in2="hardAlpha" operator="out" />
            <feColorMatrix type="matrix" values="0 0 0 0 0 0 0 0 0 0.333333 0 0 0 0 1 0 0 0 0.5 0" />
            <feBlend mode="normal" in2="BackgroundImageFix" result="effect1_dropShadow_2802_567" />
            <feBlend mode="normal" in="SourceGraphic" in2="effect1_dropShadow_2802_567" result="shape" />
        </filter>
        <filter id="filter1_d_2802_567" x="10" y="386" width="280" height="110" filterUnits="userSpaceOnUse"
            color-interpolation-filters="sRGB">
            <feFlood flood-opacity="0" result="BackgroundImageFix" />
            <feColorMatrix in="SourceAlpha" type="matrix" values="0 0 0 0 0 0 0 0 0 0 0 0 0 0 0 0 0 0 127 0"
                result="hardAlpha" />
            <feOffset dy="5" />
            <feGaussianBlur stdDeviation="20" />
            <feComposite in2="hardAlpha" operator="out" />
            <feColorMatrix type="matrix" values="0 0 0 0 0 0 0 0 0 0.333333 0 0 0 0 1 0 0 0 0.35 0" />
            <feBlend mode="normal" in2="BackgroundImageFix" result="effect1_dropShadow_2802_567" />
            <feBlend mode="normal" in="SourceGraphic" in2="effect1_dropShadow_2802_567" result="shape" />
        </filter>
        <linearGradient id="paint0_linear_2802_567" x1="250" y1="49" x2="50" y2="49" gradientUnits="userSpaceOnUse">
            <stop stop-color="#0055FF" />
            <stop offset="1" stop-color="#3377FF" />
        </linearGradient>
        <linearGradient id="paint1_linear_2802_567" x1="218" y1="35.5" x2="70.3838" y2="69.3791"
            gradientUnits="userSpaceOnUse">
            <stop stop-color="white" />
            <stop offset="0.846056" stop-color="white" stop-opacity="0" />
        </linearGradient>
    </defs>
</svg>