<svg width="300" height="331" viewBox="0 0 300 331" fill="none" xmlns="http://www.w3.org/2000/svg">
    <g filter="url(#filter0_d_2802_595)">
        <rect x="50" y="50" width="200" height="220" fill="#2971FF" />
    </g>
    <path
        d="M249.5 51C249.5 51.794 248.962 52.675 247.673 53.6198C246.398 54.5545 244.485 55.477 241.974 56.3674C236.959 58.1462 229.673 59.7567 220.637 61.1121C202.571 63.8219 177.597 65.5 150 65.5C122.403 65.5 97.4286 63.8219 79.3635 61.1121C70.3271 59.7567 63.0414 58.1462 58.0256 56.3674C55.5147 55.477 53.6023 54.5545 52.3272 53.6198C51.0384 52.675 50.5 51.794 50.5 51C50.5 50.206 51.0384 49.325 52.3272 48.3802C53.6023 47.4455 55.5147 46.523 58.0256 45.6326C63.0414 43.8538 70.3271 42.2433 79.3635 40.8879C97.4286 38.1781 122.403 36.5 150 36.5C177.597 36.5 202.571 38.1781 220.637 40.8879C229.673 42.2433 236.959 43.8538 241.974 45.6326C244.485 46.523 246.398 47.4455 247.673 48.3802C248.962 49.325 249.5 50.206 249.5 51Z"
        fill="url(#paint0_linear_2802_595)" stroke="url(#paint1_linear_2802_595)" />
    <g filter="url(#filter1_d_2802_595)">
        <ellipse cx="150" cy="271" rx="100" ry="15" fill="#0055FF" />
    </g>
    <defs>
        <filter id="filter0_d_2802_595" x="0" y="0" width="300" height="320" filterUnits="userSpaceOnUse"
            color-interpolation-filters="sRGB">
            <feFlood flood-opacity="0" result="BackgroundImageFix" />
            <feColorMatrix in="SourceAlpha" type="matrix" values="0 0 0 0 0 0 0 0 0 0 0 0 0 0 0 0 0 0 127 0"
                result="hardAlpha" />
            <feOffset />
            <feGaussianBlur stdDeviation="25" />
            <feComposite in2="hardAlpha" operator="out" />
            <feColorMatrix type="matrix" values="0 0 0 0 0 0 0 0 0 0.333333 0 0 0 0 1 0 0 0 0.5 0" />
            <feBlend mode="normal" in2="BackgroundImageFix" result="effect1_dropShadow_2802_595" />
            <feBlend mode="normal" in="SourceGraphic" in2="effect1_dropShadow_2802_595" result="shape" />
        </filter>
        <filter id="filter1_d_2802_595" x="10" y="221" width="280" height="110" filterUnits="userSpaceOnUse"
            color-interpolation-filters="sRGB">
            <feFlood flood-opacity="0" result="BackgroundImageFix" />
            <feColorMatrix in="SourceAlpha" type="matrix" values="0 0 0 0 0 0 0 0 0 0 0 0 0 0 0 0 0 0 127 0"
                result="hardAlpha" />
            <feOffset dy="5" />
            <feGaussianBlur stdDeviation="20" />
            <feComposite in2="hardAlpha" operator="out" />
            <feColorMatrix type="matrix" values="0 0 0 0 0 0 0 0 0 0.333333 0 0 0 0 1 0 0 0 0.35 0" />
            <feBlend mode="normal" in2="BackgroundImageFix" result="effect1_dropShadow_2802_595" />
            <feBlend mode="normal" in="SourceGraphic" in2="effect1_dropShadow_2802_595" result="shape" />
        </filter>
        <linearGradient id="paint0_linear_2802_595" x1="250" y1="51" x2="50" y2="51" gradientUnits="userSpaceOnUse">
            <stop stop-color="#0055FF" />
            <stop offset="1" stop-color="#3377FF" />
        </linearGradient>
        <linearGradient id="paint1_linear_2802_595" x1="218" y1="37.5" x2="70.3838" y2="71.3791"
            gradientUnits="userSpaceOnUse">
            <stop stop-color="white" />
            <stop offset="0.846056" stop-color="white" stop-opacity="0" />
        </linearGradient>
    </defs>
</svg>