<svg width="36" height="36" viewBox="0 0 36 36" fill="none" xmlns="http://www.w3.org/2000/svg">
<g clip-path="url(#clip0_282_768)">
<path d="M9.573 5.95202C11.9636 4.03661 14.9367 2.99513 18 3.00002C21.1875 3.00002 24.117 4.10402 26.427 5.95202L28.6065 3.77252L30.7275 5.89352L28.548 8.07302C30.4634 10.4636 31.5049 13.4367 31.5 16.5V18H4.5V16.5C4.5 13.3125 5.604 10.383 7.452 8.07302L5.2725 5.89502L7.3935 3.77402L9.573 5.95352V5.95202ZM4.5 21H31.5V31.5C31.5 31.8978 31.342 32.2794 31.0607 32.5607C30.7794 32.842 30.3978 33 30 33H6C5.60218 33 5.22064 32.842 4.93934 32.5607C4.65804 32.2794 4.5 31.8978 4.5 31.5V21ZM13.5 13.5C13.8978 13.5 14.2794 13.342 14.5607 13.0607C14.842 12.7794 15 12.3978 15 12C15 11.6022 14.842 11.2207 14.5607 10.9394C14.2794 10.6581 13.8978 10.5 13.5 10.5C13.1022 10.5 12.7206 10.6581 12.4393 10.9394C12.158 11.2207 12 11.6022 12 12C12 12.3978 12.158 12.7794 12.4393 13.0607C12.7206 13.342 13.1022 13.5 13.5 13.5ZM22.5 13.5C22.8978 13.5 23.2794 13.342 23.5607 13.0607C23.842 12.7794 24 12.3978 24 12C24 11.6022 23.842 11.2207 23.5607 10.9394C23.2794 10.6581 22.8978 10.5 22.5 10.5C22.1022 10.5 21.7206 10.6581 21.4393 10.9394C21.158 11.2207 21 11.6022 21 12C21 12.3978 21.158 12.7794 21.4393 13.0607C21.7206 13.342 22.1022 13.5 22.5 13.5Z" fill="black"/>
</g>
<defs>
<clipPath id="clip0_282_768">
<rect width="36" height="36" fill="white"/>
</clipPath>
</defs>
</svg>
