<svg width="36" height="36" viewBox="0 0 36 36" fill="none" xmlns="http://www.w3.org/2000/svg">
<g clip-path="url(#clip0_282_765)">
<path d="M17.436 10.8329C16.122 10.8329 14.088 9.3389 11.946 9.3929C9.12 9.4289 6.528 11.0309 5.07 13.5689C2.136 18.6629 4.314 26.1869 7.176 30.3269C8.58 32.3429 10.236 34.6109 12.432 34.5389C14.538 34.4489 15.33 33.1709 17.886 33.1709C20.424 33.1709 21.144 34.5389 23.376 34.4849C25.644 34.4489 27.084 32.4329 28.47 30.3989C30.072 28.0589 30.738 25.7909 30.774 25.6649C30.72 25.6469 26.364 23.9729 26.31 18.9329C26.274 14.7209 29.748 12.7049 29.91 12.6149C27.93 9.7169 24.888 9.3929 23.826 9.3209C21.054 9.1049 18.732 10.8329 17.436 10.8329ZM22.116 6.5849C23.286 5.1809 24.06 3.2189 23.844 1.2749C22.17 1.3469 20.154 2.3909 18.948 3.7949C17.868 5.0369 16.932 7.0349 17.184 8.9429C19.038 9.0869 20.946 7.9889 22.116 6.5849Z" fill="black"/>
</g>
<defs>
<clipPath id="clip0_282_765">
<rect width="36" height="36" fill="white"/>
</clipPath>
</defs>
</svg>
