<svg width="36" height="36" viewBox="0 0 36 36" fill="none" xmlns="http://www.w3.org/2000/svg">
<g clip-path="url(#clip0_282_771)">
<path d="M18 3C26.2845 3 33 9.7155 33 18C33 26.2845 26.2845 33 18 33C9.7155 33 3 26.2845 3 18C3 9.7155 9.7155 3 18 3ZM13.2345 23.0145C12.642 22.299 11.9055 22.044 11.016 22.251L10.791 22.3125L9.906 23.8365C9.73909 24.1082 9.68381 24.434 9.75173 24.7456C9.81965 25.0571 10.0055 25.3303 10.2704 25.5079C10.5352 25.6856 10.8585 25.7538 11.1726 25.6983C11.4866 25.6429 11.767 25.4681 11.955 25.2105L12.048 25.071L13.233 23.0145H13.2345ZM19.815 12.99C19.083 13.596 18.345 15.3855 19.38 17.1705L23.94 25.0695C24.0979 25.3378 24.3513 25.5367 24.6495 25.6263C24.9476 25.716 25.2687 25.6898 25.5484 25.5529C25.8281 25.4161 26.0458 25.1788 26.1581 24.8884C26.2704 24.598 26.2689 24.2759 26.154 23.9865L26.0805 23.8365L24.8775 21.7485H26.6625C26.8247 21.7489 26.9853 21.7172 27.1352 21.6553C27.285 21.5934 27.4212 21.5024 27.5358 21.3877C27.6504 21.273 27.7411 21.1367 27.8029 20.9868C27.8646 20.8368 27.8961 20.6762 27.8955 20.514C27.8963 20.2132 27.7868 19.9226 27.5878 19.697C27.3888 19.4715 27.114 19.3267 26.8155 19.29L26.661 19.281H23.451L20.16 13.5855L19.815 12.9915V12.99ZM20.232 8.424C19.973 8.27521 19.6688 8.22514 19.3758 8.28304C19.0827 8.34093 18.8205 8.50289 18.6375 8.739L18.5445 8.877L17.994 9.8265L17.4555 8.877C17.2976 8.60865 17.0442 8.40978 16.746 8.32015C16.4479 8.23052 16.1268 8.25674 15.8471 8.39355C15.5674 8.53037 15.3497 8.7677 15.2374 9.05812C15.1251 9.34853 15.1266 9.67062 15.2415 9.96L15.315 10.11L16.572 12.2955L12.5445 19.275H9.399C9.23697 19.2746 9.07646 19.3062 8.92668 19.3681C8.77691 19.4299 8.64083 19.5207 8.52625 19.6353C8.41168 19.7498 8.32087 19.8859 8.25905 20.0357C8.19723 20.1855 8.1656 20.346 8.166 20.508C8.166 21.1395 8.634 21.657 9.2445 21.7335L9.399 21.7425H20.619C21.129 20.7825 20.529 19.419 19.404 19.2855L19.2225 19.275H15.393L20.685 10.11C20.8485 9.82635 20.8926 9.48937 20.8077 9.17318C20.7227 8.857 20.5156 8.58751 20.232 8.424Z" fill="black"/>
</g>
<defs>
<clipPath id="clip0_282_771">
<rect width="36" height="36" fill="white"/>
</clipPath>
</defs>
</svg>
