<svg width="36" height="36" viewBox="0 0 36 36" fill="none" xmlns="http://www.w3.org/2000/svg">
<g clip-path="url(#clip0_282_762)">
<path d="M5.4135 2.72095L20.688 17.9999L5.415 33.2789C5.14341 33.1648 4.91164 32.9728 4.74884 32.7273C4.58603 32.4818 4.49946 32.1936 4.5 31.8989V4.10095C4.50012 3.80668 4.58678 3.51894 4.74921 3.27357C4.91164 3.02819 5.14266 2.83601 5.4135 2.72095ZM21.7485 19.0604L25.2015 22.5134L8.796 32.0129L21.7485 19.0604ZM26.547 14.2634L30.7575 16.7024C30.9848 16.8343 31.1735 17.0236 31.3046 17.2513C31.4358 17.479 31.5048 17.7372 31.5048 17.9999C31.5048 18.2627 31.4358 18.5209 31.3046 18.7486C31.1735 18.9763 30.9848 19.1656 30.7575 19.2974L26.5455 21.7364L22.809 17.9999L26.547 14.2634ZM8.796 3.98695L25.203 13.4849L21.7485 16.9394L8.796 3.98695Z" fill="black"/>
</g>
<defs>
<clipPath id="clip0_282_762">
<rect width="36" height="36" fill="white"/>
</clipPath>
</defs>
</svg>
