<svg width="32" height="32" viewBox="0 0 32 32" fill="none" xmlns="http://www.w3.org/2000/svg">
<g clip-path="url(#clip0_282_460)">
<path d="M29.3333 26.676C29.3309 27.0262 29.1908 27.3613 28.9433 27.609C28.6958 27.8568 28.3608 27.9972 28.0107 28H3.98933C3.63842 27.9996 3.302 27.86 3.05399 27.6117C2.80598 27.3635 2.66667 27.0269 2.66667 26.676V25.3333H26.6667V9.73333L16 19.3333L2.66667 7.33333V5.33333C2.66667 4.97971 2.80714 4.64057 3.05719 4.39052C3.30724 4.14048 3.64638 4 4 4H28C28.3536 4 28.6928 4.14048 28.9428 4.39052C29.1929 4.64057 29.3333 4.97971 29.3333 5.33333V26.676ZM5.912 6.66667L16 15.7467L26.088 6.66667H5.912ZM0 20H10.6667V22.6667H0V20ZM0 13.3333H6.66667V16H0V13.3333Z" fill="white"/>
</g>
<defs>
<clipPath id="clip0_282_460">
<rect width="32" height="32" fill="white"/>
</clipPath>
</defs>
</svg>
