<svg width="43" height="42" viewBox="0 0 43 42" fill="none" xmlns="http://www.w3.org/2000/svg">
<g clip-path="url(#clip0_2701_750)">
<path d="M4.00001 16H20V5H4.00001V16ZM13 18V20H17V22H7.00001V20H11V18H2.99201C2.8607 17.9992 2.73083 17.9725 2.60985 17.9215C2.48887 17.8704 2.37916 17.7959 2.287 17.7024C2.19485 17.6088 2.12206 17.498 2.07281 17.3763C2.02356 17.2546 1.99882 17.1243 2.00001 16.993V4.007C2.00001 3.451 2.45501 3 2.99201 3H21.008C21.556 3 22 3.449 22 4.007V16.993C22 17.549 21.545 18 21.008 18H13Z" fill="white"/>
</g>
<g clip-path="url(#clip1_2701_750)">
<path d="M38 26H40C40.2652 26 40.5196 26.1054 40.7071 26.2929C40.8946 26.4804 41 26.7348 41 27V39C41 39.2652 40.8946 39.5196 40.7071 39.7071C40.5196 39.8946 40.2652 40 40 40H32C31.7348 40 31.4804 39.8946 31.2929 39.7071C31.1054 39.5196 31 39.2652 31 39V38H23C22.7348 38 22.4804 37.8946 22.2929 37.7071C22.1054 37.5196 22 37.2652 22 37V21C22 20.7348 22.1054 20.4804 22.2929 20.2929C22.4804 20.1054 22.7348 20 23 20H37C37.2652 20 37.5196 20.1054 37.7071 20.2929C37.8946 20.4804 38 20.7348 38 21V26ZM36 26V22H24V36H31V27C31 26.7348 31.1054 26.4804 31.2929 26.2929C31.4804 26.1054 31.7348 26 32 26H36ZM33 28V38H39V28H33Z" fill="white"/>
</g>
<defs>
<clipPath id="clip0_2701_750">
<rect width="24" height="24" fill="white"/>
</clipPath>
<clipPath id="clip1_2701_750">
<rect width="24" height="24" fill="white" transform="translate(19 18)"/>
</clipPath>
</defs>
</svg>
